<?xml version="1.0" encoding="UTF-8"?>
<svg id="katman_1" xmlns="http://www.w3.org/2000/svg" version="1.1" viewBox="0 0 170.08 77.25">
  <!-- Generator: Adobe Illustrator 29.8.1, SVG Export Plug-In . SVG Version: 2.1.1 Build 2)  -->
  <defs>
    <style>
      .st0 {
        fill: #010203;
      }

      .st1 {
        fill: #e31e24;
      }
    </style>
  </defs>
  <path class="st1" d="M8.35,49.73c-.89,1.72-1.77,3.44-2.66,5.16-1.72,3.24-2.95,4.86-3.69,4.86-.59,0-1.08-.47-1.48-1.4-.35-.78-.52-1.55-.52-2.28,0-1.57,1.45-4.12,4.35-7.66-.44-1.03-.66-1.52-.66-1.47,0-.54.27-1.15.81-1.84.39-.39,1.03-.79,1.92-1.18,2.46-2.46,6.19-8,11.2-16.65,1.42-2.36,3.34-5.67,5.75-9.95.78-1.62,2.04-3.95,3.76-7,.34-.54.96-.86,1.84-.96.74-.1,1.45-.2,2.14-.29,1.47-1.42,2.38-3.86,2.72-7.29,1.72-1.18,2.75-1.77,3.09-1.77.2,0,.64.18,1.33.55.69.37,1.1.67,1.25.92.05.64,0,1.47-.15,2.5-2.31,4.71-3.86,10.19-4.64,16.43-.25,2.31-.57,8.06-.96,17.24.05.05.09.21.11.48.02.27.21.41.55.41.54,0,1.4-.25,2.58-.74l.66.74c.44-.49.77-.74.99-.74s.8-.02,1.73-.07h1.69l3.09.44c0,.1.25.39.74.88-5.06,1.08-9.06,2.11-12.01,3.09.1,1.72.32,5.08.66,10.09.34,4.57.52,6.97.52,7.22,0,.29-.39.88-1.18,1.77-1.18,1.37-1.82,2.11-1.92,2.21-.25.05-.91-.59-1.99-1.91-1.08-1.33-1.62-2.41-1.62-3.24,0-.29.24-.72.73-1.29.49-.56.78-.96.88-1.18.1-.22.15-1.14.15-2.76,0-.98-.13-2.96-.41-5.93-.27-2.97-.45-4.46-.55-4.46-.25,0-1.62.43-4.14,1.29-2.51.86-3.89,1.29-4.14,1.29-.59.1-2.72.81-6.39,2.14-3.67,1.33-5.73,2.11-6.17,2.36M30.65,16.21c-3.34,4.47-5.99,8.1-7.96,10.9-4.03,5.7-7.2,10.71-9.5,15.03l2.65-.52c.78.05,5.25-.96,13.41-3.02,0-2.8.29-7.83.88-15.1.34-2.85.52-5.28.52-7.29Z"/>
  <path class="st1" d="M65.94,35.55c-.1.15-.07.34.07.59.15.25.22.42.22.52,0,.34-.29.76-.88,1.25-4.76.93-8.33,1.89-10.68,2.87-1.77.74-3.56,1.69-5.38,2.87.05.69-.2,1.78-.74,3.28-.54,1.5-.81,2.59-.81,3.28,0,.29.04.77.11,1.44.07.66.13,1.12.18,1.36,0,.69-.42,2.55-1.25,5.6-.98,3.54-1.89,5.3-2.73,5.3-.88,0-1.77-.86-2.65-2.58-.69-1.42-1.03-2.51-1.03-3.24,0-.24.53-2,1.58-5.27,1.06-3.26,1.58-5.05,1.58-5.34,0-.25-.17-.64-.52-1.18-.34-.54-.54-.91-.59-1.11-.44-1.47-.66-2.75-.66-3.83,0-.34.4-.98,1.22-1.91.81-.93,1.35-1.4,1.62-1.4s.5-.02.7-.07c.2-.05.42-.07.66-.07.49,0,1.48-2.01,2.95-6.04.74-2.11,1.47-4.2,2.21-6.26,1.37-3.14,3.12-7.76,5.23-13.85.49-.74.94-1.18,1.36-1.33.42-.15.7-.34.85-.59h1.33c0,.25.2.86.59,1.84.39.98.59,1.84.59,2.58,0,1.33-1.33,4.71-3.98,10.17-2.95,6.19-4.69,10.24-5.23,12.16l.44.52c1.77-.44,3.66-.74,5.67-.88,2.65-.2,5.3-.42,7.96-.66"/>
  <path class="st1" d="M78.78,17.17c-1.41,3.33-3.71,9.47-6.91,18.44-3.84,10.58-5.82,17.41-5.95,20.48-.04.9.2,1.94.74,3.14.53,1.19.78,1.81.74,1.86,0,.73-.36,1.07-1.09,1.02h-1.15c-1.02,0-1.88-.85-2.56-2.56-.51-1.24-.75-2.15-.7-2.75.04-2.05.45-4.46,1.22-7.23,1.62-5.51,3.75-11.91,6.4-19.2,1.75-4.65,2.99-9.22,3.71-13.7.09-.47.52-1.09,1.31-1.86.79-.77,1.33-1.15,1.63-1.15.55.04,1.19.49,1.92,1.34l.71,2.18Z"/>
  <path class="st1" d="M102.04,54c-.25,1.73-1.87,3.67-4.85,5.83-2.98,2.15-5.27,3.23-6.87,3.23-.21,0-.41-.03-.6-.1-.19-.06-.39-.09-.6-.09-.76,0-1.69-.46-2.79-1.39-.93-.8-1.52-1.48-1.77-2.03-.85-1.73-1.27-3.42-1.27-5.07,0-.59.06-1.18.19-1.77-1.9,1.69-3.8,3.4-5.7,5.13-2.36,1.86-4.56,2.79-6.59,2.79-.72,0-1.42-.63-2.09-1.9-.63-1.1-.95-2.03-.95-2.79,0-2.62,2.12-6.23,6.37-10.83,4.24-4.6,7.57-6.88,9.98-6.84.72,0,1.22.25,1.52.76.3.51.57,1.01.82,1.52.3-.63.61-1.29.95-1.96.59-1.14,1.16-1.71,1.71-1.71s1.25.4,2.09,1.2c.3.51.19,1.5-.32,2.98-.89,1.27-1.54,2.41-1.96,3.42-.47,1.14-.95,2.79-1.46,4.94-.47,1.9-.7,3.06-.7,3.48,0,1.44.32,2.77.95,3.99.8,1.56,1.92,2.34,3.36,2.34,1.18,0,2.77-.63,4.75-1.9,1.69-1.1,3.36-2.17,5-3.23h.82ZM84.81,44.25c-.17,0-.47-.11-.92-.32-.44-.21-.77-.32-.98-.32-.71,0-1.76.61-3.15,1.84-.84.76-1.68,1.54-2.52,2.34-1.01.89-2.03,2.13-3.06,3.74-1.03,1.61-1.63,2.94-1.8,3.99.08,0,.21.09.38.28.17.19.36.29.57.29.67,0,2.48-1.31,5.42-3.93,2.65-2.41,4.16-3.91,4.54-4.5.71-1.1,1.22-2.24,1.51-3.42Z"/>
  <path class="st1" d="M111.66,56.19c-.08-.93.19-2.6.82-5.03.63-2.43.95-3.6.95-3.51-1.98,2.07-3.57,3.8-4.75,5.19-2.2,2.62-3.72,4.73-4.56,6.33-.21,0-.58.13-1.11.38-.53.25-.9.38-1.11.38-.47,0-.96-.32-1.49-.95-.53-.63-.79-1.03-.79-1.2,0-.29.52-2.5,1.55-6.61,1.03-4.12,1.91-7.35,2.63-9.72.13-.42.48-.78,1.08-1.08.59-.29,1.1-.44,1.52-.44.21,0,.53.13.95.38.59.38.91.57.95.57.13.8-.19,2.26-.95,4.37-.84,2.24-1.27,3.59-1.27,4.05,0,.21.06.38.19.51.93-.89,2.26-2.42,3.99-4.59,1.73-2.17,3.04-3.68,3.92-4.53,1.48-1.31,2.85-1.96,4.11-1.96.89,0,1.33.76,1.33,2.28s-.69,4.05-2.06,7.6c-1.37,3.55-2.06,5.95-2.06,7.22,0,2.24.84,3.36,2.53,3.36.67,0,2.72-1.01,6.14-3.04.13.09.27.18.44.29.17.11.21.26.13.47-.59,1.23-1.74,2.54-3.45,3.96-1.71,1.42-3.07,2.12-4.08,2.12-3.33,0-5.19-2.26-5.57-6.77"/>
  <path class="st1" d="M139.65,42.76c-.07.1-.05.23.05.4.1.17.15.28.15.35,0,.23-.2.52-.6.85-3.25.64-5.68,1.29-7.29,1.96-1.21.5-2.43,1.16-3.67,1.96.03.47-.13,1.21-.5,2.24-.37,1.02-.55,1.77-.55,2.24,0,.2.02.53.07.98.05.45.09.76.13.93,0,.47-.29,1.74-.86,3.82-.67,2.41-1.29,3.62-1.86,3.62-.6,0-1.21-.59-1.81-1.76-.47-.97-.7-1.71-.7-2.21,0-.17.36-1.36,1.08-3.59.72-2.23,1.08-3.44,1.08-3.64,0-.17-.12-.43-.35-.8-.23-.37-.37-.62-.4-.75-.3-1-.45-1.88-.45-2.61,0-.23.28-.67.83-1.31.55-.64.92-.96,1.11-.96s.34-.02.48-.05c.13-.03.28-.05.45-.05.33,0,1-1.37,2.01-4.12.5-1.44,1.01-2.86,1.51-4.27.94-2.14,2.13-5.29,3.57-9.45.33-.5.65-.8.93-.91.28-.1.48-.23.58-.4h.9c0,.17.13.59.4,1.26.27.67.4,1.26.4,1.76,0,.9-.91,3.22-2.71,6.94-2.01,4.22-3.2,6.99-3.57,8.29l.3.35c1.21-.3,2.5-.5,3.87-.6,1.81-.13,3.62-.28,5.43-.45"/>
  <path class="st1" d="M148.7,52.37c0,.88-1.17,2.4-3.52,4.54-2.35,2.14-3.85,3.22-4.52,3.22-.13,0-.48.02-1.06.07-.58.05-.96.07-1.11.07-.98,0-1.88-.54-2.7-1.61-.82-1.07-1.23-2.11-1.23-3.12,0-1.17.71-3.39,2.13-6.67,1.45-3.41,2.52-5.11,3.22-5.11,1.01,0,1.77.6,2.27,1.8-.16.35-1.09,2.06-2.79,5.15-1.1,1.99-1.65,3.64-1.65,4.97,0,.28.02.55.05.8.25.44.8.66,1.65.66,1.17,0,2.77-.8,4.82-2.41,2.4-1.86,3.8-2.87,4.21-3.03,0,.03.04.11.12.24.08.13.12.27.12.43M150.17,33.54c-.5.66-1.51,1.56-3.03,2.7-1.51,1.14-2.46,1.7-2.84,1.7-.5,0-.97-.28-1.39-.83-.43-.55-.64-1.06-.64-1.54,0-.19.03-.33.09-.43.63-.35,1.24-.69,1.84-1.04,1.26-.66,2.42-1.08,3.48-1.25,1.06-.17,1.6-.26,1.63-.26.25,0,.54.32.85.95Z"/>
  <path class="st1" d="M159.52,40.81c0,.17-.11.41-.33.73-.22.32-.34.58-.38.78-.17-.07-.55-.3-1.15-.7-.27-.17-.6-.84-1-2.01-.13-.23-.4-.37-.8-.4-.97-.1-1.61.28-1.91,1.15-.03.1-.12.79-.25,2.06-.03.33.25,2.08.85,5.22.6,3.15.84,5.42.7,6.83-.17,1.61-.82,3.06-1.96,4.37-1.44,1.61-3.23,2.41-5.37,2.41-1.2,0-2.19-.32-2.96-.95-.77-.64-1.15-1.51-1.15-2.61,0-.43.07-.89.2-1.35.43-1.51,1.07-2.59,1.91-3.26.53-.33,1.07-.65,1.61-.95.33,0,.74.02,1.2.05-.34.67-.67,1.34-1,2.01-.57,1.17-.85,2.06-.85,2.66,0,.77.48,1.15,1.46,1.15s1.93-.59,2.78-1.76c.85-1.17,1.31-2.39,1.38-3.66.03-.2-.27-1.84-.9-4.92-.67-3.24-1-4.88-1-4.92-.03-.3-.05-.62-.05-.95,0-1.67.47-3.2,1.41-4.59.94-1.39,2.09-2.06,3.46-2.03,1.37,0,2.46.7,3.26,2.11.7,1.17.99,2.36.85,3.56"/>
  <path class="st0" d="M143.28,74.89c0,.11,0,.19-.02.25-.01.06-.04.11-.07.14-.03.03-.07.06-.13.08-.06.03-.12.05-.2.06-.07.02-.15.03-.24.04-.08.01-.17.02-.25.02-.25,0-.47-.03-.65-.1-.18-.07-.33-.17-.45-.3-.12-.14-.2-.31-.25-.52-.05-.21-.08-.45-.08-.74v-2.86h-.69c-.05,0-.1-.03-.13-.09-.03-.06-.05-.15-.05-.28,0-.07,0-.13.01-.17,0-.05.02-.09.04-.12.01-.03.04-.05.06-.07.02-.01.05-.02.08-.02h.68v-1.16s0-.05.02-.07c.01-.02.04-.04.07-.06.03-.02.08-.03.14-.04.06,0,.13-.01.22-.01s.17,0,.22.01c.06,0,.1.02.14.04.03.02.06.04.07.06.01.02.02.04.02.07v1.16h1.25s.05,0,.08.02c.02.01.04.04.06.07.02.03.03.07.04.12,0,.05.01.1.01.17,0,.13-.02.23-.05.28-.03.06-.08.09-.13.09h-1.25v2.73c0,.34.05.59.15.76.1.17.28.26.53.26.08,0,.16,0,.22-.02.06-.02.12-.03.17-.05.05-.02.09-.04.13-.05.04-.02.07-.02.1-.02.02,0,.04,0,.05.01.01,0,.03.03.04.05,0,.03.02.06.02.1,0,.04.01.1.01.16M138.52,72.32c.01-.47-.09-.84-.31-1.11-.22-.27-.55-.4-.98-.4-.22,0-.42.04-.59.12-.17.08-.31.2-.42.34-.11.14-.2.3-.26.48-.06.18-.1.38-.1.58h2.67ZM139.42,72.59c0,.14-.04.24-.11.3-.07.06-.15.09-.24.09h-3.22c0,.27.03.52.08.74.05.22.15.41.27.56.13.16.29.28.49.36.2.08.45.13.75.13.23,0,.44-.02.62-.06.18-.04.34-.08.47-.13.13-.05.24-.09.33-.13.09-.04.15-.06.19-.06.03,0,.05,0,.07.02.02.01.04.03.04.06.01.02.02.06.03.1,0,.05,0,.1,0,.17,0,.05,0,.09,0,.12,0,.03,0,.07-.01.09,0,.03-.01.05-.03.07-.01.02-.03.04-.05.06-.02.02-.08.05-.18.1-.1.05-.23.09-.38.13-.16.04-.34.08-.54.12-.2.04-.42.05-.65.05-.4,0-.76-.06-1.06-.17-.3-.11-.56-.28-.76-.5-.21-.22-.36-.5-.47-.84-.11-.33-.16-.72-.16-1.17,0-.42.05-.8.16-1.14.11-.34.27-.62.47-.86.2-.23.45-.41.74-.54.29-.12.62-.19.98-.19.39,0,.71.06.98.19.27.12.49.29.67.5.17.21.3.45.38.74.08.28.12.58.12.9v.16ZM133.61,75.26s0,.05-.02.07c-.01.02-.04.04-.07.05-.03.01-.08.02-.14.03-.06,0-.13.01-.22.01s-.17,0-.22-.01c-.06,0-.1-.02-.14-.03-.03-.02-.06-.03-.07-.05-.01-.02-.02-.04-.02-.07v-2.98c0-.21-.02-.4-.05-.57-.04-.17-.09-.32-.17-.44-.08-.12-.18-.22-.3-.28-.12-.07-.27-.1-.44-.1-.21,0-.42.08-.62.24-.21.16-.44.39-.69.7v3.43s0,.05-.02.07c-.02.02-.04.04-.07.05-.03.01-.08.02-.14.03-.06,0-.13.01-.22.01s-.16,0-.22-.01c-.06,0-.11-.02-.14-.03-.04-.02-.06-.03-.07-.05-.01-.02-.02-.04-.02-.07v-2.98c0-.21-.02-.4-.06-.57-.04-.17-.1-.32-.18-.44-.08-.12-.18-.22-.3-.28-.12-.07-.27-.1-.43-.1-.21,0-.42.08-.63.24-.21.16-.44.39-.69.7v3.43s0,.05-.02.07c-.01.02-.04.04-.07.05-.03.01-.08.02-.14.03-.06,0-.13.01-.22.01s-.16,0-.22-.01c-.06,0-.11-.02-.14-.03-.04-.02-.06-.03-.07-.05-.01-.02-.02-.04-.02-.07v-4.91s0-.05.02-.07c.01-.02.03-.04.07-.05.03-.02.07-.03.13-.03.05,0,.12,0,.2,0s.15,0,.2,0c.05,0,.09.02.12.03.03.02.05.04.06.05.01.02.02.04.02.07v.65c.28-.31.55-.54.81-.68.26-.14.52-.22.79-.22.2,0,.39.02.55.07.16.05.3.11.43.2.12.09.23.19.32.31.09.12.16.25.22.4.16-.18.32-.33.47-.45.15-.12.29-.22.42-.3.14-.08.27-.13.4-.17.13-.04.26-.05.39-.05.32,0,.58.06.79.17.21.11.39.26.52.44.13.19.23.4.28.65.06.25.08.51.08.79v3.1ZM125.04,75.01c0,.07,0,.13-.02.18-.01.05-.02.09-.04.12-.01.03-.04.05-.06.06-.02.01-.05.02-.08.02h-3.02c-.08,0-.14-.03-.19-.08-.05-.05-.07-.14-.07-.26v-.19s0-.1.01-.14c0-.04.02-.08.03-.12.01-.04.04-.08.06-.13.02-.05.06-.1.09-.15l2.17-3.36h-2.1c-.06,0-.1-.03-.14-.09-.04-.06-.05-.16-.05-.29,0-.06,0-.12.01-.17,0-.05.02-.09.04-.12.02-.03.04-.05.06-.07.02-.01.05-.02.09-.02h2.82s.07,0,.11.02c.03.01.06.03.08.05.02.03.04.06.05.1.01.04.02.09.02.15v.17c0,.05,0,.1-.01.14,0,.04-.02.09-.03.13-.01.04-.03.09-.06.13-.03.05-.06.1-.09.16l-2.16,3.36h2.3s.06,0,.08.02c.02.01.04.03.06.06.02.03.03.07.04.12.01.05.02.11.02.18ZM120.36,68.7c0,.21-.04.36-.12.43-.08.08-.23.12-.44.12s-.36-.04-.44-.11c-.08-.07-.12-.22-.12-.42s.04-.36.12-.43c.08-.08.23-.12.44-.12s.36.04.44.11c.08.07.12.22.12.42ZM120.26,75.26s0,.05-.02.07c-.01.02-.04.04-.07.05-.03.01-.08.02-.14.03-.06,0-.13.01-.22.01s-.16,0-.22-.01c-.06,0-.11-.02-.14-.03-.04-.02-.06-.03-.07-.05-.01-.02-.02-.04-.02-.07v-4.91s0-.05.02-.07c.01-.02.04-.04.07-.06.03-.01.08-.02.14-.03.06,0,.13-.01.22-.01s.17,0,.22.01c.06,0,.1.02.14.03.03.01.06.03.07.06.02.02.02.04.02.07v4.91ZM117.58,75.25s0,.06-.02.08c-.02.02-.04.04-.08.05-.04.01-.09.02-.14.03-.06,0-.13.01-.22.01-.1,0-.17,0-.23-.01-.06,0-.11-.02-.14-.03-.04-.01-.06-.03-.08-.05-.01-.02-.02-.05-.02-.08v-3.13h-3.2v3.13s0,.06-.02.08c-.01.02-.04.04-.08.05-.04.01-.08.02-.14.03-.06,0-.14.01-.23.01s-.16,0-.22-.01c-.06,0-.11-.02-.15-.03-.04-.01-.06-.03-.08-.05-.02-.02-.02-.05-.02-.08v-6.77s0-.06.02-.08c.01-.02.04-.04.08-.05.04-.01.09-.02.15-.03.06,0,.14-.01.22-.01s.17,0,.23.01c.06,0,.11.02.14.03.04.01.06.03.08.05.01.02.02.05.02.08v2.83h3.2v-2.83s0-.05.02-.08c.01-.02.04-.04.08-.05.04-.01.08-.02.14-.03.06,0,.13-.01.23-.01.09,0,.16,0,.22.01.06,0,.11.02.14.03.04.01.06.03.08.05.01.02.02.05.02.08v6.77ZM108.83,75.25s0,.06-.02.08c-.01.02-.04.04-.07.06-.04.01-.08.02-.15.03-.06,0-.14.01-.23.01s-.18,0-.24,0c-.06,0-.12-.01-.16-.03-.04-.01-.08-.03-.11-.05-.03-.02-.05-.05-.07-.09l-2.07-2.72v2.72s0,.05-.02.07c-.02.02-.04.04-.07.05-.03.01-.08.02-.14.03-.06,0-.13.01-.22.01s-.16,0-.22-.01c-.06,0-.11-.02-.14-.03-.04-.02-.06-.03-.07-.05-.01-.02-.02-.04-.02-.07v-7.28s0-.06.02-.08c.01-.02.04-.04.07-.06.03-.01.08-.02.14-.03.06,0,.13-.01.22-.01s.17,0,.22.01c.06,0,.1.02.14.03.03.01.06.03.07.06.01.02.02.05.02.08v4.43l1.85-2.04s.06-.07.09-.09c.03-.02.07-.04.12-.06.04-.02.1-.03.16-.03.06,0,.14,0,.22,0s.17,0,.23,0c.06,0,.11.02.15.03.04.01.06.03.08.05.02.02.02.05.02.08,0,.04-.01.09-.04.13-.02.05-.06.1-.12.15l-1.77,1.78,1.99,2.59c.05.06.08.11.1.15.02.04.03.07.03.11ZM103.14,75.26s0,.05-.02.07c-.01.02-.04.04-.07.05-.03.01-.08.02-.14.03-.06,0-.13.01-.22.01s-.16,0-.22-.01c-.06,0-.11-.02-.14-.03-.04-.02-.06-.03-.07-.05-.01-.02-.02-.04-.02-.07v-4.91s0-.05.02-.07c.01-.02.04-.04.07-.05.03-.02.08-.03.14-.03.06,0,.13,0,.22,0s.17,0,.22,0c.06,0,.1.02.14.03.03.02.06.04.07.05.01.02.02.04.02.07v4.91ZM100.58,75.26s0,.05-.02.07c-.01.02-.04.04-.07.05-.03.01-.08.02-.14.03-.06,0-.13.01-.22.01s-.16,0-.22-.01c-.06,0-.11-.02-.14-.03-.04-.02-.06-.03-.07-.05-.01-.02-.02-.04-.02-.07v-7.28s0-.06.02-.08c.01-.02.04-.04.07-.06.03-.01.08-.02.14-.03.06,0,.13-.01.22-.01s.17,0,.22.01c.06,0,.1.02.14.03.03.01.06.03.07.06.01.02.02.05.02.08v7.28ZM96.97,67.96c0-.05.02-.1.07-.12.04-.03.13-.04.25-.04.07,0,.12,0,.17,0,.04,0,.07.01.1.03.02.01.04.03.05.05,0,.02.01.04.01.07,0,.25-.03.46-.09.65-.06.18-.15.34-.27.46-.12.12-.27.22-.44.28-.18.06-.38.09-.61.09-.25,0-.46-.03-.63-.1-.18-.06-.32-.16-.44-.28-.11-.12-.2-.28-.25-.46-.05-.18-.08-.39-.08-.62,0-.06.02-.1.07-.13.04-.03.13-.04.25-.04.06,0,.12,0,.16.01.04,0,.07.02.1.03.02.01.04.03.05.05.01.02.02.04.02.07.01.12.03.24.06.34.03.1.07.19.13.27.06.07.14.13.23.17.09.04.2.06.33.06.11,0,.21-.02.3-.05.09-.03.17-.08.24-.15.07-.07.12-.15.16-.26.04-.1.06-.23.07-.38ZM97.56,75.75c0-.21-.09-.37-.26-.49-.17-.11-.41-.17-.7-.18l-1.27-.04c-.12.09-.21.18-.29.26-.07.08-.13.16-.18.23-.04.07-.07.15-.09.22-.02.07-.02.15-.02.22,0,.24.12.41.36.54.24.12.57.18,1,.18.27,0,.5-.03.68-.08.18-.05.33-.12.44-.21.11-.09.19-.19.24-.3.05-.11.07-.23.07-.35ZM97.11,71.87c0-.33-.09-.59-.28-.78-.18-.19-.45-.28-.78-.28-.17,0-.33.03-.46.09-.13.06-.24.14-.32.24-.09.1-.15.22-.19.35-.04.13-.06.27-.06.42,0,.32.09.57.28.76.18.18.44.28.77.28.18,0,.33-.03.46-.08.13-.06.24-.13.32-.23.09-.1.15-.22.19-.35.04-.13.06-.27.06-.41ZM98.52,70.58c0,.13-.02.22-.05.28-.03.06-.08.08-.13.08h-.7c.13.13.22.27.27.43.05.16.08.32.08.49,0,.28-.04.53-.14.75-.09.22-.22.4-.39.55-.17.15-.37.27-.6.35-.23.08-.49.12-.77.12-.2,0-.39-.03-.57-.08-.18-.05-.32-.12-.42-.2-.06.07-.11.14-.15.22-.04.09-.06.18-.06.29,0,.13.06.23.18.32.12.09.28.13.47.14l1.28.05c.24,0,.47.04.67.1.2.06.38.15.53.26.15.11.26.25.35.41.08.16.12.35.12.56,0,.23-.05.44-.14.64-.09.2-.24.38-.43.54-.19.15-.44.28-.74.36-.3.09-.66.13-1.07.13s-.73-.03-1.01-.1c-.28-.07-.51-.16-.68-.28-.18-.12-.31-.26-.39-.42-.08-.16-.12-.34-.12-.53,0-.12.01-.24.04-.35.03-.11.07-.22.13-.32.06-.1.13-.2.22-.29.09-.09.19-.18.31-.28-.18-.09-.31-.21-.39-.34-.08-.14-.13-.29-.13-.45,0-.22.04-.42.13-.6.09-.17.2-.33.33-.47-.11-.13-.2-.28-.27-.45-.07-.17-.1-.37-.1-.61,0-.28.05-.53.14-.75.1-.22.23-.41.39-.56.17-.15.37-.27.6-.35.23-.08.49-.12.77-.12.15,0,.29,0,.42.03.13.02.25.04.36.07h1.48c.06,0,.11.03.14.09.03.06.05.15.05.28ZM91.88,73.02h-.77c-.25,0-.46.02-.64.06-.18.04-.33.1-.45.19-.12.08-.21.18-.26.29-.06.12-.08.25-.08.4,0,.26.08.46.24.61.16.15.39.23.68.23.23,0,.45-.06.65-.18.2-.12.41-.3.63-.55v-1.04ZM92.77,75.26s-.02.08-.04.1c-.03.02-.07.04-.12.05-.05.01-.12.02-.22.02-.09,0-.17,0-.23-.02-.06-.01-.1-.03-.12-.05-.03-.02-.04-.05-.04-.1v-.49c-.21.23-.45.41-.72.53-.26.12-.54.19-.84.19-.26,0-.49-.03-.7-.1-.21-.07-.39-.17-.53-.29-.15-.13-.26-.28-.34-.47-.08-.19-.12-.4-.12-.63,0-.28.06-.52.17-.72.11-.2.27-.37.49-.51.21-.13.47-.24.77-.3.3-.07.65-.1,1.03-.1h.68v-.38c0-.19-.02-.36-.06-.5-.04-.15-.1-.27-.19-.36-.09-.1-.2-.17-.35-.22-.14-.05-.32-.07-.52-.07-.22,0-.42.03-.6.08-.18.05-.33.11-.46.18-.13.06-.24.12-.33.18-.09.05-.15.08-.2.08-.03,0-.06,0-.08-.02-.02-.01-.04-.04-.06-.07-.02-.03-.03-.07-.04-.11,0-.05-.01-.09-.01-.15,0-.09,0-.16.02-.21.01-.05.04-.1.09-.15.05-.05.13-.1.25-.17.12-.06.26-.12.41-.18.15-.05.33-.1.51-.13.18-.04.37-.05.56-.05.35,0,.65.04.9.12.25.08.45.2.6.35.15.15.26.35.33.57.07.23.1.5.1.8v3.31ZM87.84,73.41c0,.33-.06.62-.18.88-.12.26-.29.48-.51.66-.22.18-.47.31-.76.41-.29.09-.61.14-.95.14-.24,0-.46-.02-.66-.06-.2-.04-.38-.09-.54-.15-.16-.06-.29-.12-.4-.18-.11-.06-.18-.12-.22-.16-.04-.04-.07-.1-.09-.17-.02-.07-.03-.16-.03-.27,0-.08,0-.15.01-.2,0-.05.02-.1.03-.13.01-.03.03-.06.06-.07.02-.01.05-.02.08-.02.05,0,.12.03.22.09.09.06.21.13.36.2.15.07.32.14.53.2.2.06.44.1.71.1.2,0,.39-.03.56-.08.17-.05.31-.13.44-.23.12-.1.22-.22.28-.37.07-.15.1-.31.1-.49,0-.2-.04-.37-.14-.51-.09-.14-.21-.27-.36-.37-.15-.11-.32-.2-.51-.29-.19-.09-.39-.18-.59-.27-.2-.09-.39-.2-.58-.31-.19-.11-.36-.24-.51-.4s-.27-.33-.36-.54c-.09-.2-.14-.45-.14-.74s.05-.56.16-.79c.11-.23.26-.42.45-.58.19-.16.42-.28.68-.36.26-.08.55-.12.85-.12.16,0,.31.01.47.04.16.03.31.06.45.11.14.04.26.1.37.15.11.06.18.1.21.14.04.04.06.06.07.08.01.02.02.05.03.08,0,.03.01.07.02.11,0,.04,0,.1,0,.17,0,.06,0,.12,0,.17,0,.05-.02.09-.03.13,0,.03-.03.06-.04.08-.02.02-.04.02-.07.02-.04,0-.1-.03-.19-.08-.09-.05-.19-.11-.31-.17-.12-.06-.27-.12-.44-.17-.17-.05-.36-.08-.57-.08-.2,0-.37.03-.51.08-.15.05-.27.12-.36.21-.09.09-.16.19-.21.31-.05.12-.07.25-.07.38,0,.2.04.36.14.51.09.14.21.27.36.38.15.11.32.21.52.3.19.09.39.18.59.28.2.09.4.19.59.3.19.11.36.24.52.39.15.15.27.33.36.53.09.2.14.45.14.73Z"/>
  <path class="st0" d="M157.49,68.7c0,.21-.04.36-.12.43-.08.08-.23.12-.44.12s-.36-.04-.44-.11c-.08-.07-.12-.22-.12-.42s.04-.36.12-.43c.08-.08.23-.12.44-.12s.36.04.44.11c.08.07.12.22.12.42M157.39,75.26s0,.05-.02.07c-.01.02-.04.04-.07.05-.03.01-.08.02-.14.03-.06,0-.13.01-.22.01s-.16,0-.22-.01c-.06,0-.11-.02-.14-.03-.04-.02-.06-.03-.07-.05-.01-.02-.02-.04-.02-.07v-4.91s0-.05.02-.07c.01-.02.04-.04.07-.06.03-.01.08-.02.14-.03.06,0,.13-.01.22-.01s.17,0,.22.01c.06,0,.1.02.14.03.03.01.06.03.07.06.02.02.02.04.02.07v4.91ZM155.46,70.67c0,.08,0,.15,0,.2,0,.05-.01.1-.02.13,0,.03-.02.05-.04.07-.01.02-.04.02-.07.02s-.07,0-.11-.02c-.04-.02-.09-.03-.14-.05-.05-.02-.11-.03-.18-.05-.07-.02-.14-.02-.21-.02-.09,0-.18.02-.27.05-.09.04-.18.1-.27.18-.1.08-.2.2-.3.33-.1.14-.22.31-.35.51v3.23s0,.05-.02.07c-.01.02-.04.04-.07.05-.03.01-.08.02-.14.03-.06,0-.13.01-.22.01s-.16,0-.22-.01c-.06,0-.11-.02-.14-.03-.04-.02-.06-.03-.07-.05-.01-.02-.02-.04-.02-.07v-4.91s0-.05.02-.07c.01-.02.03-.04.07-.05.03-.02.07-.03.13-.03.05,0,.12,0,.2,0s.15,0,.2,0c.05,0,.09.02.12.03.03.02.05.04.06.05.01.02.02.04.02.07v.71c.13-.2.26-.36.38-.48.12-.12.23-.22.33-.29.11-.07.21-.12.31-.15.1-.03.21-.04.31-.04.05,0,.1,0,.16,0,.06,0,.12.02.19.03.07.01.12.03.18.05.05.02.09.04.11.05.02.02.04.04.04.05,0,.02.01.04.02.06,0,.03,0,.06.01.11,0,.05,0,.12,0,.2ZM150.31,72.32c.01-.47-.09-.84-.31-1.11-.22-.27-.55-.4-.98-.4-.22,0-.42.04-.59.12-.17.08-.31.2-.42.34-.11.14-.2.3-.26.48-.06.18-.1.38-.1.58h2.67ZM151.22,72.59c0,.14-.04.24-.11.3-.07.06-.15.09-.24.09h-3.22c0,.27.03.52.08.74.05.22.15.41.27.56.13.16.29.28.49.36.2.08.45.13.75.13.23,0,.44-.02.62-.06.18-.04.34-.08.47-.13.13-.05.24-.09.33-.13.09-.04.15-.06.19-.06.03,0,.05,0,.07.02.02.01.04.03.04.06.01.02.02.06.03.1,0,.05,0,.1,0,.17,0,.05,0,.09,0,.12,0,.03,0,.07-.01.09,0,.03-.02.05-.03.07-.01.02-.03.04-.05.06-.02.02-.08.05-.18.1-.1.05-.23.09-.38.13-.16.04-.34.08-.54.12-.2.04-.42.05-.65.05-.4,0-.76-.06-1.06-.17-.3-.11-.56-.28-.76-.5-.21-.22-.36-.5-.47-.84-.11-.33-.16-.72-.16-1.17,0-.42.05-.8.16-1.14.11-.34.27-.62.47-.86.2-.23.45-.41.74-.54.29-.12.62-.19.98-.19.39,0,.71.06.98.19.27.12.49.29.67.5.17.21.3.45.38.74.08.28.12.58.12.9v.16ZM145.38,75.26s0,.05-.02.07c-.01.02-.04.04-.07.05-.03.01-.08.02-.14.03-.06,0-.13.01-.22.01s-.16,0-.22-.01c-.06,0-.11-.02-.14-.03-.04-.02-.06-.03-.07-.05-.01-.02-.02-.04-.02-.07v-7.28s0-.06.02-.08c.01-.02.04-.04.07-.06.03-.01.08-.02.14-.03.06,0,.13-.01.22-.01s.17,0,.22.01c.06,0,.1.02.14.03.03.01.06.03.07.06.02.02.02.05.02.08v7.28Z"/>
  <path class="st0" d="M163.71,29.82h1.06c.51,0,.85-.08,1.04-.23.18-.15.28-.35.28-.6,0-.16-.05-.3-.13-.43-.09-.13-.21-.22-.37-.28-.16-.06-.45-.09-.88-.09h-.99v1.63ZM162.84,32.87v-5.41h1.86c.64,0,1.1.05,1.38.15.29.1.51.27.68.52.17.25.25.51.25.79,0,.39-.14.74-.43,1.03-.28.29-.66.46-1.13.49.19.08.35.18.46.29.22.21.48.57.8,1.07l.66,1.06h-1.06l-.48-.85c-.38-.67-.69-1.09-.92-1.26-.16-.12-.39-.18-.7-.18h-.51v2.29h-.87ZM165.05,25.89c-.71,0-1.4.18-2.07.54-.67.36-1.19.88-1.57,1.55-.38.67-.57,1.37-.57,2.1s.19,1.42.56,2.09c.37.66.89,1.18,1.56,1.55.67.37,1.36.56,2.09.56s1.42-.19,2.09-.56c.67-.37,1.19-.89,1.55-1.55.37-.66.55-1.36.55-2.09s-.19-1.43-.56-2.1c-.38-.67-.9-1.19-1.57-1.55-.67-.36-1.36-.54-2.06-.54ZM165.05,25.06c.84,0,1.67.22,2.47.65.8.43,1.43,1.05,1.88,1.86.45.81.67,1.65.67,2.52s-.22,1.7-.66,2.5c-.44.8-1.06,1.42-1.86,1.86-.8.44-1.63.66-2.5.66s-1.71-.22-2.51-.66c-.8-.44-1.42-1.06-1.86-1.86-.44-.8-.67-1.63-.67-2.5s.23-1.72.68-2.52c.45-.81,1.08-1.43,1.88-1.86.81-.43,1.63-.65,2.48-.65Z"/>
</svg>